<svg height="219" viewBox="0 0 97 219" width="97" xmlns="http://www.w3.org/2000/svg"><path d="m363.769129 5470.64478c14.685159 0 20.423342-4.83643 20.423342-19.34754v-39.61451c0-21.18999 14.226248-35.69929 36.485234-35.69929h24.322295v26.94765h-22.029531c-7.113124 0-8.489858 1.61214-8.489858 8.06072v38.00237c0 17.73359-8.719313 29.25071-25.928483 34.31745v2.99399c17.20917 5.06854 25.928483 16.58386 25.928483 34.31746v37.31144c0 6.44858 1.376734 8.06072 8.489858 8.06072h22.029531v26.94766h-24.322295c-22.258986 0-36.485234-14.51111-36.485234-35.6993v-38.92359c0-14.5093-5.738183-19.34754-20.423342-19.34754h-13.769129v-28.32769z" fill="none" stroke="#0db39f" transform="translate(-349 -5375)"/></svg>