<svg height="274" viewBox="0 0 310 274" width="310" xmlns="http://www.w3.org/2000/svg"><g fill="none" fill-rule="evenodd" transform="translate(1 1)"><path d="m250.70649 272.16h-193.58649v-244.4218383c0-15.3200276 12.4396078-27.7381617 27.7788753-27.7381617h223.1011247l-28.646755 28.6069385v214.9550795c0 15.792481-12.823089 28.597982-28.646755 28.597982"/><path d="m57.12 218.4c0-42.390443 0-105.880952 0-190.6618383 0-15.3200276 12.4396078-27.7381617 27.7788753-27.7381617h223.1011247l-28.646755 28.6069385v214.9550795c0 15.792481-12.823089 28.597982-28.646755 28.597982h-193.58649" stroke="#1320d9" stroke-linecap="round" stroke-linejoin="round"/><path d="m28.6445123 272.16c-15.8214228 0-28.6445123-12.827664-28.6445123-28.647477v-25.112523h222.22876v25.112523c0 15.819813 12.827575 28.647477 28.65124 28.647477z"/><path d="m28.6445123 272.16c-15.8214228 0-28.6445123-12.827664-28.6445123-28.647477v-25.112523h222.22876v25.112523c0 15.819813 12.827575 28.647477 28.65124 28.647477z" stroke="#1320d9" stroke-linecap="round" stroke-linejoin="round"/><path d="m172.478885 163.52 35.921803-19.901581c8.931956-4.944632 14.479312-14.377467 14.479312-24.615762v-58.3242751c-33.600743 0-50.401115-18.1183819-50.401115-18.1183819s-16.800371 18.1183819-50.398885 18.1183819v58.3242751c0 10.238295 5.542896 19.67113 14.479312 24.615762z" fill="#ced8e0"/><path d="m161.281115 151.2 35.919573-19.901581c8.934186-4.944632 14.479312-14.375229 14.479312-24.615762v-58.3220377c-33.598514 0-50.398885-18.1206193-50.398885-18.1206193s-16.800372 18.1206193-50.401115 18.1206193v58.3220377c0 10.240533 5.545126 19.67113 14.479312 24.615762z" fill="#fff"/><path d="m161.281115 151.2 35.919573-19.901581c8.934186-4.944632 14.479312-14.375229 14.479312-24.615762v-58.3220377c-33.598514 0-50.398885-18.1206193-50.398885-18.1206193s-16.800372 18.1206193-50.401115 18.1206193v58.3220377c0 10.240533 5.545126 19.67113 14.479312 24.615762z" stroke="#1320d9" stroke-linecap="round" stroke-linejoin="round"/><path d="m138.88 90.1656909 15.306182 15.1143091 29.493818-29.12" stroke="#0db39f" stroke-linecap="round" stroke-linejoin="round"/><path d="m90.06256 172.26272h153.47808" fill="#fff"/><path d="m90.06256 172.26272h153.47808" stroke="#1320d9" stroke-linecap="round" stroke-linejoin="round"/><path d="m90.06256 194.301632h153.47808" fill="#fff"/><path d="m90.06256 194.301632h153.47808" stroke="#1320d9" stroke-linecap="round" stroke-linejoin="round"/></g></svg>